<svg width="113" height="67" viewBox="0 0 113 67" fill="none" xmlns="http://www.w3.org/2000/svg">
<g filter="url(#filter0_d_24_172)">
<path fill-rule="evenodd" clip-rule="evenodd" d="M29.3855 0C17.0223 0 7 10.0236 7 22.3884C7 34.7532 17.0223 44.7768 29.3855 44.7768C29.6575 44.7768 29.9284 44.7719 30.1981 44.7623C29.5217 45.9367 29.1835 46.8122 29.1835 47.3888C29.1835 47.8327 29.3737 48.2194 29.7541 48.5491C30.1345 48.8915 30.4895 49.0627 30.8191 49.0627C31.1488 49.0627 31.4087 48.9739 31.5989 48.7964C31.7891 48.6316 31.992 48.3399 32.2075 47.9214C32.9605 46.6483 33.7504 45.3983 34.5774 44.1715C38.0155 43.3549 41.1465 41.7452 43.7665 39.5464C44.474 39.572 45.2045 39.5992 45.9582 39.6281C43.1688 45.5121 41.717 48.5872 41.6029 48.8535C41.5015 49.1325 41.4507 49.291 41.4507 49.329C41.4507 49.5192 41.6536 49.6143 42.0593 49.6143C42.1101 49.6143 42.2622 49.5699 42.5158 49.4812C42.7694 49.4051 43.061 49.3671 43.3907 49.3671C44.2021 49.3671 44.8805 49.031 45.4257 48.3589C45.73 48.0039 45.9709 47.6805 46.1484 47.3888C46.3259 47.0972 46.6492 46.5202 47.1184 45.6579C47.6002 44.7829 49.4641 40.763 52.7099 33.5983C55.9558 26.4336 57.5788 22.604 57.5788 22.1094C57.5788 21.7543 57.2872 21.3739 56.7039 20.9681C56.1207 20.5623 55.734 20.3594 55.5438 20.3594H55.4487C55.2838 20.3594 55.0049 20.7969 54.6118 21.6719C54.3202 21.3549 54.0666 21.1964 53.8511 21.1964C53.6482 21.1837 53.3693 21.2661 53.0143 21.4437C52.6128 21.6467 52.1979 21.8773 51.7696 22.1353C51.634 9.88715 41.6642 0 29.3855 0ZM51.5241 25.7253C51.6867 24.6366 51.771 23.5224 51.771 22.3884C51.771 22.3039 51.7706 22.2196 51.7696 22.1353C49.8441 23.2955 47.647 25.0114 45.1785 27.2832C42.1608 30.0603 39.2699 33.0721 36.5058 36.3184C35.6817 36.3437 34.8765 36.3754 34.0904 36.4135C33.8622 36.4262 33.7037 36.4325 33.6149 36.4325C32.4738 36.4325 31.5609 36.6544 30.8762 37.0983C30.2042 37.5294 29.8682 38.0366 29.8682 38.62C29.8682 39.1906 30.0394 39.4759 30.3817 39.4759C30.4958 39.4759 30.7558 39.4379 31.1615 39.3618C31.5799 39.2857 32.5562 39.2477 34.0904 39.2477C32.3066 41.5157 31.0092 43.3539 30.1981 44.7623C31.7003 44.7087 33.1648 44.5071 34.5774 44.1715C35.6862 42.5267 36.8615 40.9234 38.1034 39.3618C39.7894 39.4092 41.6772 39.4707 43.7665 39.5464C44.8393 38.646 45.8264 37.6469 46.7139 36.5631C46.9435 36.5762 47.1735 36.5897 47.4037 36.6037C48.0611 35.2201 48.6901 33.8993 49.2909 32.6413C49.4981 32.2398 49.6934 31.8313 49.8766 31.4162C51.1457 28.7637 52.2804 26.4096 53.2805 24.3539C52.6885 24.8033 52.103 25.2604 51.5241 25.7253ZM49.8766 31.4162C50.6646 29.6296 51.226 27.7205 51.5241 25.7253C47.5773 28.8947 43.9342 32.4257 40.5949 36.3184C42.614 36.364 44.6537 36.4456 46.7139 36.5631C47.7032 35.3547 48.5687 34.041 49.2909 32.6413C49.4892 32.2261 49.6844 31.8177 49.8766 31.4162ZM57.2935 55.6251C57.6232 55.0544 57.8197 54.7374 57.8831 54.674C60.6559 51.6908 63.581 48.9425 66.6583 46.4291C66.7896 47.0407 67.047 47.5508 67.4306 47.9595C68.0265 48.5681 68.8127 48.8725 69.789 48.8725C70.7653 48.8725 71.8493 48.5491 73.0412 47.9024C74.2457 47.243 75.3615 46.4061 76.3885 45.3916C77.4282 44.3644 78.3792 43.2739 79.2414 42.1199C80.1036 40.9533 80.7819 39.812 81.2764 38.6961C81.7709 37.5675 82.0181 36.6544 82.0181 35.957C82.0181 35.2468 81.8153 34.7206 81.4095 34.3782C81.0165 34.0358 80.6298 33.8646 80.2494 33.8646C79.869 33.8646 79.5901 33.8773 79.4125 33.9027V33.7885C79.4125 33.6998 79.3492 33.5983 79.2224 33.4842C78.8673 33.1418 78.3411 32.9706 77.6438 32.9706C76.0842 32.9706 74.2711 33.8012 72.2044 35.4624C71.2154 36.274 70.2961 37.1934 69.4466 38.2205C68.5971 39.235 67.8997 40.408 67.3545 41.7395C67.1195 42.3273 66.9363 42.8928 66.805 43.4361C63.7693 46.1861 61.3786 48.2962 59.6328 49.7665C60.8247 47.3064 63.0055 43.4007 66.1754 38.0493C67.2531 36.236 67.8427 35.2342 67.9441 35.0439C68.0456 34.841 68.0963 34.6825 68.0963 34.5684C68.0963 34.4416 68.0329 34.3085 67.9061 34.169C67.83 34.0929 67.7539 34.0105 67.6779 33.9217C67.6145 33.8329 67.4053 33.7505 67.0502 33.6744C66.7079 33.5983 66.448 33.5603 66.2705 33.5603C66.1056 33.5603 65.9535 33.6237 65.814 33.7505C65.7252 33.8139 65.6428 33.8773 65.5668 33.9407C65.4907 34.0041 65.4019 34.0992 65.3005 34.226C65.2117 34.3402 65.1293 34.4416 65.0532 34.5304C64.9898 34.6191 64.9011 34.7459 64.787 34.9108C64.6855 35.063 64.5968 35.1898 64.5207 35.2912C64.4573 35.38 64.3686 35.5131 64.2544 35.6907C63.3542 37.0856 62.1116 38.6263 60.5267 40.3129C59.1067 41.8346 57.807 43.0836 56.6279 44.0601C55.4614 45.0238 54.7069 45.5057 54.3646 45.5057C54.2632 45.5057 54.2124 45.455 54.2124 45.3535C54.2124 44.9351 55.0429 43.2168 56.7039 40.1987C58.3649 37.1807 59.1954 35.4751 59.1954 35.082C59.1954 34.6889 59.0116 34.3528 58.6439 34.0739C58.2888 33.7822 57.9972 33.6364 57.769 33.6364C57.5408 33.6364 57.2999 33.8393 57.0463 34.245C56.7927 34.6382 56.425 35.2976 55.9432 36.2233C55.4614 37.149 54.9922 37.9606 54.5358 38.658C54.054 39.533 53.5278 40.4397 52.9572 41.3781C52.3993 42.3165 52.0062 42.9822 51.778 43.3753C51.1314 44.5039 50.8081 45.6706 50.8081 46.8752C50.8081 47.6868 51.049 48.2511 51.5308 48.5681C52.0126 48.8979 52.5007 49.0627 52.9952 49.0627H53.1284C54.092 48.9613 55.0937 48.4984 56.1334 47.6741C57.1731 46.8372 58.3015 45.753 59.5187 44.4215C57.6929 47.8707 56.742 49.646 56.6659 49.7475C56.5898 49.8616 56.1397 50.3181 55.3155 51.117C54.4914 51.9286 53.8067 52.6831 53.2615 53.3806C51.8287 55.232 51.1124 56.8488 51.1124 58.231C51.1124 59.4103 51.6956 60 52.8621 60C52.9635 60 53.1918 59.9746 53.5468 59.9239C53.9145 59.8859 54.3646 59.6006 54.8971 59.068C55.4423 58.5354 55.8988 57.9711 56.2665 57.375C56.6342 56.7917 56.9765 56.2084 57.2935 55.6251ZM78.1953 36.3945H78.3285C78.506 36.3945 78.5947 36.5657 78.5947 36.908C78.5947 37.2377 78.3411 37.8718 77.834 38.8102C77.3395 39.7359 76.5851 40.8328 75.5707 42.1009C74.5691 43.369 73.5547 44.3454 72.5277 45.0302C71.5007 45.7149 70.7272 46.0573 70.2074 46.0573C69.6875 46.0573 69.4276 45.7023 69.4276 44.9921C69.453 43.5592 70.2771 41.8029 71.9001 39.7232C72.6989 38.6834 73.6054 37.783 74.6198 37.0222C75.6341 36.2613 76.6041 35.7287 77.5297 35.4244C77.5297 36.0711 77.7516 36.3945 78.1953 36.3945ZM97.2357 42.6327C97.4182 42.0988 97.6393 41.5157 97.899 40.8835C98.7738 38.7531 99.8326 36.591 101.075 34.3972C102.33 32.1907 103.605 30.0413 104.898 27.949C106.204 25.8566 107.313 24.1447 108.226 22.8132C109.139 21.4817 109.697 20.7145 109.9 20.5116C110.103 20.3087 110.47 20.1375 111.003 19.998C111.548 19.8585 112.017 19.7951 112.41 19.8078C112.803 19.8078 113 19.9854 113 20.3404C113 20.5687 112.886 20.8603 112.658 21.2154C109.982 25.2353 107.377 29.439 104.841 33.8266C105.424 33.5222 106.077 33.3067 106.8 33.1799C107.535 33.0404 108.049 32.9706 108.34 32.9706C108.645 32.9706 108.905 32.9833 109.12 33.0087C109.336 33.0213 109.608 33.0911 109.938 33.2179C110.28 33.332 110.572 33.4969 110.813 33.7125C111.396 34.2324 111.688 34.9679 111.688 35.9189C111.688 36.87 111.428 37.9162 110.908 39.0575C110.401 40.1861 109.703 41.321 108.816 42.4623C107.941 43.6036 106.977 44.6688 105.925 45.6579C104.885 46.6343 103.763 47.4332 102.559 48.0546C101.354 48.6759 100.232 48.9866 99.1922 48.9866C98.7104 48.9866 98.1525 48.6759 97.5186 48.0546C97.1186 47.6545 96.8473 47.173 96.7049 46.61C96.4079 46.893 96.0706 47.1906 95.6928 47.503C94.4502 48.5174 93.271 49.0247 92.1552 49.0247C91.4706 49.0247 90.8366 48.8154 90.2533 48.397C89.6701 47.9912 89.3785 47.2747 89.3785 46.2475C89.3785 45.2204 89.6511 44.2123 90.1963 43.2231C87.0518 47.1669 84.5857 49.1388 82.7979 49.1388C82.0879 49.1388 81.511 48.8852 81.0672 48.3779C80.6361 47.8707 80.4205 47.3508 80.4205 46.8182C80.4205 46.2729 80.4966 45.7149 80.6488 45.1443C80.8009 44.561 80.9594 44.0411 81.1243 43.5845C81.3018 43.128 81.5554 42.5637 81.885 41.8916C82.2273 41.2196 82.4809 40.7313 82.6458 40.427C82.8106 40.1227 83.0705 39.6661 83.4255 39.0575C83.7932 38.4361 84.2687 37.6055 84.852 36.5657C85.4479 35.5258 85.936 34.7586 86.3164 34.2641C86.7095 33.7568 87.0899 33.5032 87.4576 33.5032C87.8253 33.4905 88.1486 33.6364 88.4275 33.9407C88.7065 34.245 88.8459 34.4923 88.8459 34.6825C88.8459 34.8728 88.4212 35.7287 87.5717 37.2504C85.0612 41.7902 83.8059 44.4342 83.8059 45.1823C83.8059 45.3726 83.8757 45.4677 84.0151 45.4677C84.6237 45.4677 86.1389 44.1488 88.5607 41.5112C90.9824 38.8736 92.3835 37.187 92.7638 36.4515C93.1442 35.7034 93.5119 35.0756 93.8669 34.5684C94.2346 34.0612 94.5072 33.7505 94.6848 33.6364C95.23 33.2813 95.9337 33.0911 96.7959 33.0657C96.9353 33.0657 97.0431 33.0721 97.1192 33.0847C97.1953 33.0974 97.284 33.2052 97.3854 33.4081C97.4869 33.611 97.5376 33.7695 97.5376 33.8836C97.4235 34.2387 96.9163 35.1834 96.0161 36.7178C95.1285 38.2522 94.634 39.1209 94.5326 39.3238C93.0365 42.4179 92.2884 44.4342 92.2884 45.3726C92.2884 45.9052 92.4912 46.1715 92.897 46.1715C93.6324 46.07 94.5199 45.4803 95.5596 44.4025C95.94 44.0094 96.314 43.6099 96.6817 43.2041C96.927 42.9425 97.1116 42.752 97.2357 42.6327ZM108.302 36.9841C108.302 37.7323 108.042 38.5629 107.523 39.4759C106.686 40.985 105.443 42.475 103.795 43.946C102.147 45.4043 100.885 46.1334 100.01 46.1334C99.6424 46.1334 99.4585 45.8481 99.4585 45.2775C99.4585 44.0474 100.695 41.2069 103.167 36.7559C103.395 36.9841 103.579 37.0983 103.719 37.0983C103.858 37.0983 104.416 36.8954 105.392 36.4896C106.381 36.0711 107.11 35.8619 107.58 35.8619C108.061 35.8619 108.302 36.236 108.302 36.9841Z" fill="#9A9A9A"/>
</g>
<defs>
<filter id="filter0_d_24_172" x="0" y="0" width="113" height="67" filterUnits="userSpaceOnUse" color-interpolation-filters="sRGB">
<feFlood flood-opacity="0" result="BackgroundImageFix"/>
<feColorMatrix in="SourceAlpha" type="matrix" values="0 0 0 0 0 0 0 0 0 0 0 0 0 0 0 0 0 0 127 0" result="hardAlpha"/>
<feOffset dx="-5" dy="5"/>
<feGaussianBlur stdDeviation="1"/>
<feComposite in2="hardAlpha" operator="out"/>
<feColorMatrix type="matrix" values="0 0 0 0 0 0 0 0 0 0 0 0 0 0 0 0 0 0 0.25 0"/>
<feBlend mode="normal" in2="BackgroundImageFix" result="effect1_dropShadow_24_172"/>
<feBlend mode="normal" in="SourceGraphic" in2="effect1_dropShadow_24_172" result="shape"/>
</filter>
</defs>
</svg>
